<svg xmlns="http://www.w3.org/2000/svg" width="229" height="57" viewBox="0 0 229 57">
  <g fill="none" fill-rule="evenodd" transform="translate(-1)">
    <text fill="#FFF" font-family="Montserrat-Light, Montserrat" font-size="40" font-weight="300">
      <tspan x="0" y="49">stylifyme</tspan>
    </text>
    <g transform="translate(180)">
      <path fill="#FFF" d="M15.9967078,32.9446064 C7.16197004,32.9446064 0,25.5697051 0,16.4723032 C0,7.37490135 7.16197004,0 15.9967078,0 C24.8314456,0 31.9934156,7.37490135 31.9934156,16.4723032 C31.9934156,25.5697051 24.8314456,32.9446064 15.9967078,32.9446064 Z M15.9967078,27.5635213 C21.94536,27.5635213 26.7676955,22.5978138 26.7676955,16.4723032 C26.7676955,10.3467926 21.94536,5.38108516 15.9967078,5.38108516 C10.0480556,5.38108516 5.22572016,10.3467926 5.22572016,16.4723032 C5.22572016,22.5978138 10.0480556,27.5635213 15.9967078,27.5635213 Z"/>
      <rect width="31.03" height="32.119" x="15.8" y="15.081" stroke="#FFF" stroke-width="5.6"/>
    </g>
  </g>
</svg>
